<?xml version="1.0"?>
<svg width="512" height="512" xmlns="http://www.w3.org/2000/svg" xmlns:svg="http://www.w3.org/2000/svg" preserveAspectRatio="xMidYMid meet" version="1.0">
 <metadata>Created by potrace 1.16, written by Peter Selinger 2001-2019</metadata>
 <g class="layer">
  <title>Layer 1</title>
  <g fill="#000000" id="svg_1" transform="matrix(0.373063 0 0 -0.522383 -683.619 -1063.63)">
   <path d="m1846,-2047c-3,-3 -6,-179 -6,-390c0,-334 2,-383 15,-383c13,0 15,29 15,200l0,200l90,0l90,0l0,-200c0,-171 2,-200 15,-200c13,0 15,29 15,200l0,200l60,0l60,0l0,-184c0,-101 3,-191 6,-200c18,-46 24,3 24,184l0,200l110,0l110,0l2,-202c2,-150 6,-202 16,-206c9,-3 12,79 12,387c0,341 -2,391 -15,391c-13,0 -15,-26 -15,-170l0,-170l-110,0l-110,0l0,170c0,144 -2,170 -15,170c-13,0 -15,-26 -15,-170l0,-170l-60,0l-60,0l0,170c0,144 -2,170 -15,170c-13,0 -15,-26 -15,-170l0,-170l-90,0l-90,0l0,169c0,154 -5,192 -24,174z" id="svg_2"/>
   <path d="m2790,-2371c0,-355 1,-361 65,-418c67,-58 199,-60 267,-3c56,48 58,60 58,417c0,282 -2,325 -15,325c-13,0 -15,-43 -15,-323c0,-361 -2,-371 -71,-409c-48,-27 -152,-21 -195,10c-62,43 -64,57 -64,406c0,274 -2,316 -15,316c-13,0 -15,-42 -15,-321z" id="svg_3"/>
   <path d="m2858,-2055c-10,-11 1,-455 12,-476c12,-21 58,-44 69,-34c3,4 -4,14 -17,23c-35,27 -42,74 -42,289c0,182 -4,216 -22,198z" id="svg_4"/>
   <path d="m2470,-2945c0,-36 3,-65 8,-65c4,0 6,18 4,40c-5,45 14,56 24,15c7,-28 19,-32 28,-9c9,24 7,41 -3,25c-7,-11 -13,-6 -25,22c-23,56 -36,46 -36,-28z" id="svg_5"/>
   <path d="m2725,-2890c-8,-12 4,-120 14,-120c8,0 8,116 -1,125c-3,3 -9,1 -13,-5z" id="svg_6"/>
   <path d="m2920,-2944c0,-37 4,-66 10,-66c6,0 10,26 10,59c0,33 -4,63 -10,66c-6,4 -10,-18 -10,-59z" id="svg_7"/>
   <path d="m1853,-2950c0,-36 2,-53 4,-37c4,22 9,27 34,27c22,0 29,-5 29,-19c0,-11 5,-23 10,-26c6,-4 9,17 9,57c-1,35 -4,51 -6,36c-4,-24 -9,-28 -38,-28c-29,0 -34,4 -38,28c-2,15 -4,-2 -4,-38z" id="svg_8"/>
   <path d="m1974,-2945c1,-58 2,-60 29,-63c42,-5 57,13 57,70c0,30 -4,47 -10,43c-5,-3 -10,-26 -10,-51c0,-44 -1,-45 -27,-42c-25,3 -29,8 -34,53l-6,50l1,-60z" id="svg_9"/>
   <path d="m2270,-2940c0,-43 -3,-50 -20,-50c-11,0 -20,-4 -20,-10c0,-16 47,-11 54,6c10,26 7,104 -4,104c-5,0 -10,-22 -10,-50z" id="svg_10"/>
   <path d="m2365,-2926c-9,-21 -18,-49 -21,-63c-5,-24 -4,-25 9,-8c18,21 67,23 67,2c0,-8 5,-15 11,-15c6,0 8,9 3,23c-34,107 -45,117 -69,61zm38,-14c4,-15 0,-20 -13,-20c-13,0 -17,5 -13,20c3,11 9,20 13,20c4,0 10,-9 13,-20z" id="svg_11"/>
   <path d="m2548,-2902c-7,-21 3,-108 13,-108c5,0 9,27 9,60c0,55 -11,79 -22,48z" id="svg_12"/>
   <path d="m2633,-2907c-3,-10 -12,-33 -19,-52c-18,-42 -17,-61 0,-38c16,21 66,23 66,2c0,-8 5,-15 10,-15c13,0 13,1 -11,65c-21,57 -35,68 -46,38zm30,-33c4,-15 0,-20 -14,-20c-17,0 -18,3 -9,20c6,11 12,20 14,20c2,0 6,-9 9,-20z" id="svg_13"/>
   <path d="m2789,-2927l-12,-36l-13,24c-16,30 -18,9 -2,-26c15,-33 24,-32 34,8l8,32l3,-42c6,-65 23,-51 23,17c0,71 -21,83 -41,23z" id="svg_14"/>
   <path d="m2860,-2950c0,-33 4,-60 10,-60c6,0 10,27 10,60c0,33 -4,60 -10,60c-6,0 -10,-27 -10,-60z" id="svg_15"/>
   <path d="m2960,-2942c0,-31 5,-60 10,-63c6,-4 10,7 10,27l1,33l27,-33c15,-18 30,-32 35,-32c4,0 7,27 7,60c0,33 -4,60 -10,60c-5,0 -10,-19 -11,-42l0,-43l-17,24c-9,14 -25,34 -34,45c-17,20 -17,19 -18,-36z" id="svg_16"/>
   <path d="m3101,-2909c-34,-62 17,-120 83,-95c9,3 16,17 16,30c0,19 -5,24 -26,24c-14,0 -23,-4 -19,-10c3,-5 13,-10 22,-10c13,0 13,-3 3,-15c-29,-35 -70,-10 -70,42c0,27 5,34 25,39c15,4 32,1 42,-7c14,-12 16,-12 11,1c-3,9 -20,16 -41,18c-27,2 -38,-1 -46,-17z" id="svg_17"/>
  </g>
  <rect fill="#FF0000" height="1" id="svg_18" stroke="#000000" width="0" x="487.5" y="476"/>
 </g>
</svg>