<?xml version="1.0" encoding="UTF-8" standalone="no"?>
<!DOCTYPE svg PUBLIC "-//W3C//DTD SVG 1.1//EN" "http://www.w3.org/Graphics/SVG/1.1/DTD/svg11.dtd">
<!-- Created with Vectornator (http://vectornator.io/) -->
<svg stroke-miterlimit="10" style="fill-rule:nonzero;clip-rule:evenodd;stroke-linecap:round;stroke-linejoin:round;" version="1.1" viewBox="0 0 145.4 45.22" xml:space="preserve" xmlns="http://www.w3.org/2000/svg" xmlns:xlink="http://www.w3.org/1999/xlink">
<defs/>
<clipPath id="ArtboardFrame">
<rect height="45.22" width="145.4" x="0" y="0"/>
</clipPath>
<g clip-path="url(#ArtboardFrame)" id="Calque-1">
<g opacity="1">
<path d="M50.9742 36.4535L50.9742 30.0135L53.6242 30.0135C53.9542 30.0135 54.1842 30.0135 54.3142 30.0235C54.6642 30.0435 54.9342 30.0935 55.1442 30.1935C55.3542 30.2835 55.5242 30.4335 55.6542 30.6435C55.8542 30.9535 55.9642 31.4335 55.9642 32.0935C55.9642 32.7035 55.8842 33.1435 55.7342 33.4335C55.5442 33.7935 55.2342 34.0135 54.8042 34.1035C54.6742 34.1335 54.2742 34.1435 53.6042 34.1635L51.9642 34.1635L51.9642 36.4535C51.9642 36.4535 50.9742 36.4535 50.9742 36.4535ZM51.9642 33.3135L53.5142 33.3135C54.0242 33.3135 54.3542 33.2835 54.5242 33.2135C54.7242 33.1335 54.8542 32.9735 54.9142 32.7335C54.9442 32.6135 54.9642 32.4335 54.9642 32.1835C54.9642 31.7635 54.9342 31.4735 54.8842 31.2935C54.7942 31.0335 54.5642 30.8935 54.1842 30.8735C54.1142 30.8735 53.9442 30.8635 53.6942 30.8635L51.9742 30.8635L51.9742 33.3135L51.9642 33.3135Z" fill="#00aeef" fill-rule="nonzero" opacity="1" stroke="none"/>
<path d="M61.2942 35.1535L58.2842 35.1535L57.8442 36.4535L56.8042 36.4535L59.0442 30.0235L60.4842 30.0235L62.7642 36.4535L61.7442 36.4535L61.2942 35.1535ZM61.0442 34.4035L59.7842 30.7935L58.5442 34.4035L61.0442 34.4035Z" fill="#00aeef" fill-rule="nonzero" opacity="1" stroke="none"/>
<path d="M64.4942 36.4535L64.4942 30.0135L67.6142 30.0135C68.2042 30.0135 68.6442 30.1035 68.9442 30.2735C69.2342 30.4435 69.4242 30.6935 69.5142 31.0435C69.5742 31.2535 69.6042 31.5335 69.6042 31.8935C69.6042 32.3335 69.5642 32.6735 69.5042 32.8935C69.4042 33.2135 69.1942 33.4335 68.8942 33.5435C68.7942 33.5835 68.6542 33.6235 68.4742 33.6535L68.4742 33.6835C68.8342 33.7135 69.0942 33.8235 69.2742 34.0335C69.4442 34.2435 69.5342 34.5435 69.5342 34.9335L69.5342 36.4535L68.5442 36.4535L68.5442 35.1435C68.5442 34.7435 68.4542 34.4635 68.2742 34.3035C68.0842 34.1535 67.8142 34.0835 67.4542 34.0935L65.5042 34.0935L65.5042 36.4535C65.5042 36.4535 64.4942 36.4535 64.4942 36.4535ZM65.4842 33.2435L67.3842 33.2435C67.8042 33.2435 68.1042 33.1835 68.2842 33.0535C68.4342 32.9435 68.5242 32.7935 68.5642 32.5835C68.5842 32.4935 68.5942 32.3435 68.5942 32.1235C68.5942 31.7235 68.5742 31.4535 68.5242 31.3135C68.4442 31.0835 68.2542 30.9435 67.9442 30.8935C67.8242 30.8735 67.6942 30.8635 67.5442 30.8635L65.4742 30.8635L65.4742 33.2435L65.4842 33.2435Z" fill="#00aeef" fill-rule="nonzero" opacity="1" stroke="none"/>
<path d="M71.7242 30.0235L72.7142 30.0235L72.7142 30.0235L72.7142 36.4535L72.7142 36.4535L71.7242 36.4535L71.7242 36.4535L71.7242 30.0235L71.7242 30.0235Z" fill="#00aeef" fill-rule="nonzero" opacity="1" stroke="none"/>
<path d="M79.6042 31.8335L78.6342 31.8335C78.6342 31.4635 78.5942 31.2235 78.5042 31.0835C78.4142 30.9435 78.2542 30.8535 78.0242 30.8035C77.8742 30.7735 77.6542 30.7635 77.3442 30.7635C76.9342 30.7635 76.6342 30.7735 76.4642 30.8035C76.2842 30.8235 76.1442 30.8735 76.0342 30.9435C75.8342 31.0635 75.7342 31.3335 75.7342 31.7535C75.7342 32.0335 75.7742 32.2435 75.8542 32.3935C75.9442 32.5735 76.1642 32.6735 76.4942 32.7135C76.5942 32.7235 76.9142 32.7435 77.4542 32.7735C78.0342 32.8035 78.4242 32.8335 78.6442 32.8835C79.1042 32.9735 79.4142 33.1935 79.5842 33.5335C79.6942 33.7535 79.7442 34.1035 79.7442 34.5735C79.7442 34.9535 79.7142 35.2635 79.6642 35.4935C79.6042 35.7235 79.5142 35.9035 79.3842 36.0435C79.1442 36.2935 78.8042 36.4435 78.3542 36.4835C78.0342 36.5135 77.6442 36.5335 77.1842 36.5335C76.4442 36.5335 75.9442 36.4935 75.6742 36.4135C75.1342 36.2435 74.8242 35.8335 74.7442 35.1735C74.7342 35.0335 74.7142 34.7935 74.7142 34.4635L75.6842 34.4635L75.6842 34.6135C75.6842 34.8935 75.7142 35.1135 75.7642 35.2635C75.8142 35.4135 75.8942 35.5235 76.0142 35.5935C76.1342 35.6735 76.3042 35.7135 76.5342 35.7235C76.7642 35.7335 77.0342 35.7335 77.3242 35.7335C77.7242 35.7335 78.0242 35.7135 78.1942 35.6735C78.3742 35.6335 78.5042 35.5635 78.5942 35.4535C78.7042 35.3235 78.7642 35.0335 78.7642 34.5735C78.7642 34.3335 78.7342 34.1435 78.6742 34.0235C78.5842 33.8435 78.3842 33.7435 78.0742 33.7035C77.9842 33.6935 77.6642 33.6735 77.0942 33.6335C76.5442 33.6035 76.1942 33.5735 76.0542 33.5535C75.5642 33.4835 75.2142 33.3035 75.0042 33.0035C74.8242 32.7535 74.7342 32.3635 74.7342 31.8235C74.7342 31.0935 74.9042 30.6035 75.2342 30.3535C75.4942 30.1635 75.8242 30.0535 76.2342 30.0135C76.5342 29.9835 76.8642 29.9735 77.2242 29.9735C77.8442 29.9735 78.2842 30.0035 78.5442 30.0635C79.0042 30.1735 79.3142 30.4135 79.4642 30.7935C79.5542 31.0135 79.5942 31.3135 79.5942 31.6935L79.5942 31.8335L79.6042 31.8335Z" fill="#00aeef" fill-rule="nonzero" opacity="1" stroke="none"/>
<path d="M81.1442 33.6135L83.2042 33.6135L83.2042 34.4435L81.1342 34.4435L81.1442 33.6135Z" fill="#00aeef" fill-rule="nonzero" opacity="1" stroke="none"/>
<path d="M89.5042 31.8335L88.5342 31.8335C88.5342 31.4635 88.4942 31.2235 88.4042 31.0835C88.3142 30.9435 88.1542 30.8535 87.9242 30.8035C87.7742 30.7735 87.5542 30.7635 87.2442 30.7635C86.8342 30.7635 86.5342 30.7735 86.3642 30.8035C86.1842 30.8235 86.0442 30.8735 85.9342 30.9435C85.7342 31.0635 85.6342 31.3335 85.6342 31.7535C85.6342 32.0335 85.6742 32.2435 85.7542 32.3935C85.8442 32.5735 86.0642 32.6735 86.3942 32.7135C86.4942 32.7235 86.8142 32.7435 87.3542 32.7735C87.9342 32.8035 88.3242 32.8335 88.5442 32.8835C89.0042 32.9735 89.3142 33.1935 89.4842 33.5335C89.5942 33.7535 89.6542 34.1035 89.6542 34.5735C89.6542 34.9535 89.6242 35.2635 89.5642 35.4935C89.5042 35.7235 89.4142 35.9035 89.2842 36.0435C89.0442 36.2935 88.7042 36.4435 88.2542 36.4835C87.9342 36.5135 87.5442 36.5335 87.0842 36.5335C86.3442 36.5335 85.8442 36.4935 85.5742 36.4135C85.0342 36.2435 84.7242 35.8335 84.6442 35.1735C84.6242 35.0335 84.6142 34.7935 84.6142 34.4635L85.5842 34.4635L85.5842 34.6135C85.5842 34.8935 85.6142 35.1135 85.6642 35.2635C85.7142 35.4135 85.7942 35.5235 85.9142 35.5935C86.0342 35.6735 86.2042 35.7135 86.4342 35.7235C86.6742 35.7335 86.9342 35.7335 87.2242 35.7335C87.6242 35.7335 87.9242 35.7135 88.0942 35.6735C88.2742 35.6335 88.4042 35.5635 88.5042 35.4535C88.6142 35.3235 88.6742 35.0335 88.6742 34.5735C88.6742 34.3335 88.6442 34.1435 88.5842 34.0235C88.4942 33.8435 88.2942 33.7435 87.9842 33.7035C87.8942 33.6935 87.5742 33.6735 87.0042 33.6335C86.4542 33.6035 86.1042 33.5735 85.9642 33.5535C85.4742 33.4835 85.1242 33.3035 84.9142 33.0035C84.7342 32.7535 84.6442 32.3635 84.6442 31.8235C84.6442 31.0935 84.8142 30.6035 85.1342 30.3535C85.3942 30.1635 85.7242 30.0535 86.1342 30.0135C86.4342 29.9835 86.7642 29.9735 87.1242 29.9735C87.7442 29.9735 88.1842 30.0035 88.4442 30.0635C88.9042 30.1735 89.2142 30.4135 89.3542 30.7935C89.4442 31.0135 89.4842 31.3135 89.4842 31.6935L89.4842 31.8335L89.5042 31.8335Z" fill="#00aeef" fill-rule="nonzero" opacity="1" stroke="none"/>
<path d="M95.4242 35.1535L92.4142 35.1535L91.9742 36.4535L90.9342 36.4535L93.1742 30.0235L94.6142 30.0235L96.8942 36.4535L95.8742 36.4535L95.4242 35.1535ZM95.1742 34.4035L93.9142 30.7935L92.6742 34.4035L95.1742 34.4035Z" fill="#00aeef" fill-rule="nonzero" opacity="1" stroke="none"/>
<path d="M102.484 34.2235L103.464 34.2235C103.464 34.3335 103.464 34.4135 103.464 34.4435C103.464 35.0235 103.414 35.4335 103.314 35.6635C103.124 36.0935 102.744 36.3535 102.184 36.4435C101.934 36.4835 101.464 36.5035 100.774 36.5035C100.224 36.5035 99.8242 36.4735 99.5542 36.4235C99.2842 36.3735 99.0542 36.2735 98.8542 36.1235C98.4742 35.8335 98.2542 35.3235 98.1942 34.6035C98.1642 34.1635 98.1442 33.5435 98.1442 32.7735C98.1442 32.1035 98.1742 31.6135 98.2442 31.2835C98.3342 30.8435 98.5842 30.5035 98.9942 30.2635C99.2742 30.1035 99.6442 30.0035 100.134 29.9735C100.354 29.9535 100.724 29.9535 101.244 29.9535C101.804 29.9535 102.204 29.9935 102.434 30.0635C102.954 30.2335 103.264 30.6235 103.354 31.2335C103.374 31.3735 103.394 31.6535 103.404 32.0635L102.424 32.0635C102.424 31.9735 102.414 31.9135 102.414 31.8835C102.414 31.6135 102.384 31.4135 102.344 31.2735C102.304 31.1335 102.234 31.0335 102.134 30.9635C101.984 30.8535 101.644 30.7935 101.124 30.7935C100.364 30.7935 99.8742 30.8435 99.6442 30.9435C99.4342 31.0335 99.3042 31.2235 99.2342 31.5235C99.1942 31.6935 99.1742 31.9535 99.1742 32.3235C99.1742 33.0035 99.1842 33.6035 99.1942 34.1135C99.2142 34.8235 99.3342 35.2735 99.5742 35.4435C99.7542 35.5835 100.174 35.6535 100.814 35.6535C101.604 35.6535 102.094 35.5735 102.274 35.4135C102.424 35.2735 102.494 35.0035 102.494 34.5835C102.494 34.5035 102.494 34.3835 102.484 34.2235" fill="#00aeef" fill-rule="nonzero" opacity="1" stroke="none"/>
<path d="M106.364 30.0235L106.364 35.5635L109.514 35.5635L109.514 36.4535L105.374 36.4535L105.374 30.0235L106.364 30.0235Z" fill="#00aeef" fill-rule="nonzero" opacity="1" stroke="none"/>
<path d="M115.374 35.1535L112.364 35.1535L111.924 36.4535L110.884 36.4535L113.124 30.0235L114.564 30.0235L116.844 36.4535L115.824 36.4535L115.374 35.1535ZM115.124 34.4035L113.864 30.7935L112.624 34.4035L115.124 34.4035Z" fill="#00aeef" fill-rule="nonzero" opacity="1" stroke="none"/>
<path d="M122.784 30.0235L120.374 33.8935L120.374 36.4635L119.384 36.4635L119.384 33.8935L117.044 30.0235L118.184 30.0235L119.354 31.9535C119.444 32.1035 119.584 32.3335 119.764 32.6635L119.894 32.9035L119.924 32.9035L120.054 32.6635C120.234 32.3335 120.374 32.1035 120.464 31.9535L121.634 30.0235L122.784 30.0235Z" fill="#00aeef" fill-rule="nonzero" opacity="1" stroke="none"/>
<path d="M144.254 16.0235C144.864 16.0235 145.414 16.4635 145.414 17.1535C145.414 17.8335 144.864 18.2835 144.254 18.2835C143.644 18.2835 143.094 17.8435 143.094 17.1535C143.094 16.4635 143.644 16.0235 144.254 16.0235M144.254 18.0335C144.724 18.0335 145.104 17.6635 145.104 17.1435C145.104 16.6235 144.724 16.2535 144.254 16.2535C143.774 16.2535 143.404 16.6235 143.404 17.1435C143.404 17.6635 143.784 18.0335 144.254 18.0335M144.844 17.3335C144.794 17.6335 144.564 17.8135 144.294 17.8135C143.904 17.8135 143.644 17.5235 143.644 17.1435C143.644 16.7535 143.884 16.4635 144.284 16.4635C144.564 16.4635 144.794 16.6335 144.834 16.9335L144.594 16.9335C144.564 16.7935 144.444 16.7135 144.284 16.7135C144.054 16.7135 143.934 16.8935 143.934 17.1435C143.934 17.3835 144.074 17.5835 144.294 17.5835C144.464 17.5835 144.584 17.4935 144.594 17.3435L144.844 17.3435L144.844 17.3335Z" fill="#0b3b60" fill-rule="nonzero" opacity="1" stroke="none"/>
<path d="M139.234 25.6935L139.234 22.0735L134.804 22.0735L134.804 25.6935L133.124 25.6935L133.124 17.1335L134.804 17.1335L134.804 20.6035L139.234 20.6035L139.234 17.1335L140.914 17.1335L140.914 25.6935L139.234 25.6935Z" fill="#0b3b60" fill-rule="nonzero" opacity="1" stroke="none"/>
<path d="M123.304 25.7535L123.304 25.7535C122.444 25.7535 121.704 25.5035 121.194 25.0035C120.674 24.5035 120.414 23.7835 120.414 22.9335L120.414 19.8935C120.404 18.7135 120.864 17.9035 121.624 17.5135C122.384 17.1235 123.334 17.0735 124.404 17.0735L125.224 17.0735C126.174 17.0735 126.874 17.2535 127.354 17.7235C127.824 18.2035 127.964 18.8735 127.964 19.6835L127.964 20.2735L126.284 20.2735L126.284 19.9335L126.284 19.7135C126.284 19.1835 126.204 18.8935 126.084 18.7835C125.974 18.6635 125.704 18.5535 125.084 18.5535L124.524 18.5535C123.764 18.5535 123.204 18.5835 122.834 18.6835C122.464 18.7935 122.324 18.9135 122.214 19.1435C122.144 19.3035 122.094 19.5335 122.094 19.8735L122.094 22.0335C122.094 22.7035 122.114 23.2135 122.194 23.5635C122.294 23.9135 122.394 24.0535 122.654 24.1735C122.834 24.2535 123.104 24.2935 123.484 24.2935L124.664 24.2935C125.244 24.2935 125.664 24.2635 125.924 24.1835C126.184 24.0935 126.244 24.0335 126.324 23.8635C126.364 23.7435 126.404 23.5735 126.404 23.3135L126.404 22.3435L128.084 22.3435L128.084 23.4235C128.094 24.3935 127.694 25.0935 127.034 25.4035C126.394 25.7235 125.594 25.7635 124.704 25.7635L123.304 25.7635" fill="#0b3b60" fill-rule="nonzero" opacity="1" stroke="none"/>
<path d="M108.954 25.6935L108.954 17.1335L115.264 17.1335L115.264 18.6135L110.634 18.6135L110.634 20.6035L115.064 20.6035L115.064 22.0235L110.634 22.0235L110.634 24.2135L115.264 24.2135L115.264 25.6935L108.954 25.6935Z" fill="#0b3b60" fill-rule="nonzero" opacity="1" stroke="none"/>
<path d="M99.7542 25.6935L99.7542 18.6135L96.9142 18.6135L96.9142 17.1335L104.264 17.1335L104.264 18.6135L101.434 18.6135L101.434 25.3435L101.434 25.6935L99.7542 25.6935Z" fill="#0b3b60" fill-rule="nonzero" opacity="1" stroke="none"/>
<path d="M87.9742 25.6935L87.9742 22.1735L84.4542 17.1335L86.4442 17.1335L88.8542 20.5635L91.2642 17.1335L93.2942 17.1335L89.6542 22.1735L89.6542 25.6935L87.9742 25.6935Z" fill="#0b3b60" fill-rule="nonzero" opacity="1" stroke="none"/>
<path d="M75.4542 25.6935L75.4542 17.1335L77.1342 17.1335L77.1342 24.2135L81.5842 24.2135L81.5842 25.6935L75.4542 25.6935Z" fill="#0b3b60" fill-rule="nonzero" opacity="1" stroke="none"/>
<path d="M66.9842 17.0735C68.1042 17.0835 68.9042 17.2435 69.4542 17.7635C70.0042 18.2835 70.1642 19.0535 70.1642 20.0635L70.1642 22.8635C70.1642 23.8335 69.9742 24.5835 69.4142 25.0935C68.8542 25.5935 68.0542 25.7635 66.9742 25.7635L65.7942 25.7635C64.7142 25.7635 63.9142 25.5935 63.3542 25.0935C62.7942 24.5935 62.6042 23.8335 62.6042 22.8635L62.6042 20.0635C62.6042 19.0535 62.7742 18.2835 63.3142 17.7635C63.8642 17.2535 64.6642 17.0935 65.7942 17.0735L66.9842 17.0735M65.8042 18.5435C65.0842 18.5435 64.7142 18.6435 64.5642 18.8035C64.4042 18.9435 64.2842 19.3135 64.2942 20.0635L64.2942 22.8635C64.2942 23.6135 64.4342 23.9235 64.6142 24.0535C64.7842 24.2035 65.1742 24.2735 65.8042 24.2735L66.9842 24.2735C67.6142 24.2735 68.0042 24.2035 68.1842 24.0535C68.3542 23.9235 68.5042 23.6135 68.5042 22.8635L68.5042 20.0635C68.5042 19.3135 68.3942 18.9535 68.2342 18.8035C68.0842 18.6435 67.7142 18.5435 66.9942 18.5435L65.8042 18.5435" fill="#0b3b60" fill-rule="nonzero" opacity="1" stroke="none"/>
<path d="M51.0042 25.6935L51.0042 17.4835L51.0042 17.1435L55.8042 17.1435C56.7142 17.1335 57.3742 17.4335 57.7642 17.9635C58.1442 18.4935 58.2342 19.1535 58.2442 19.8635C58.2442 20.2235 58.2542 20.8835 57.9342 21.4935C57.6242 22.1135 56.9142 22.6435 55.7642 22.6235L52.6942 22.6235L52.6942 25.6835L51.0042 25.6835L51.0042 25.6935ZM52.6842 21.1535L54.9042 21.1535L54.9542 21.1535C55.4342 21.1535 55.8142 21.1435 56.0442 21.0835C56.2742 21.0135 56.3542 20.9535 56.4542 20.7335C56.5142 20.5835 56.5542 20.3335 56.5542 19.9835C56.5642 19.2435 56.4542 18.8935 56.3442 18.8035C56.2542 18.6935 55.9742 18.6135 55.3642 18.6235L52.6742 18.6235L52.6742 21.1535L52.6842 21.1535Z" fill="#0b3b60" fill-rule="nonzero" opacity="1" stroke="none"/>
<path d="M20.9716 0.0107635C10.6016 0.0107635 1.96164 7.39076 0.00163883 17.1808L8.75164 17.1808C9.40164 15.3108 10.4616 13.6408 11.8316 12.2608C14.1816 9.91076 17.3916 8.48076 20.9716 8.47076C24.5516 8.47076 27.7616 9.91076 30.1116 12.2608C32.4616 14.6108 33.8916 17.8208 33.9016 21.4008C33.9016 24.9808 32.4616 28.1908 30.1116 30.5408C27.7616 32.8908 24.5516 34.3208 20.9716 34.3208C17.3916 34.3208 14.1816 32.8808 11.8316 30.5408C10.4716 29.1708 9.41164 27.5208 8.77164 25.6708L0.0216388 25.6708L0.0216388 25.6708L0.0216388 36.5708C0.0216388 45.7708 7.98164 45.2208 7.98164 45.2208L7.99164 38.3908C11.5916 41.1508 16.1016 42.7908 20.9816 42.7908C32.7916 42.7908 42.3716 33.2108 42.3716 21.4008C42.3616 9.59077 32.7916 0.0107635 20.9716 0.0107635" fill="#00aeef" fill-rule="nonzero" opacity="1" stroke="none"/>
</g>
</g>
</svg>
